<mxfile host="app.diagrams.net" modified="2021-03-02T12:17:36.520Z" agent="5.0 (X11)" etag="dTGwogDuSvztQjwmAxPN" version="14.4.3" type="github">
  <diagram name="Page-1" id="5f0bae14-7c28-e335-631c-24af17079c00">
    <mxGraphModel dx="2450" dy="804" grid="1" gridSize="10" guides="1" tooltips="1" connect="1" arrows="1" fold="1" page="1" pageScale="1" pageWidth="1100" pageHeight="850" background="#ffffff" math="0" shadow="0">
      <root>
        <mxCell id="0" />
        <mxCell id="1" parent="0" />
        <mxCell id="hEB2tJItjk9eLHJauMbJ-1" value="&lt;ul&gt;&#xa;&lt;li style=&quot;font-weight: 400&quot;&gt;Solves business problems&lt;/li&gt;&#xa;&lt;li style=&quot;font-weight: 400&quot;&gt;Supports visual aesthetic&lt;/li&gt;&#xa;&lt;li style=&quot;font-weight: 400&quot;&gt;Enables A/B testing and analytics&lt;/li&gt;&#xa;&lt;li style=&quot;font-weight: 400&quot;&gt;Ensures fast user experience&lt;/li&gt;&#xa;&lt;li style=&quot;font-weight: 400&quot;&gt;Provides security&lt;/li&gt;&#xa;&lt;li style=&quot;font-weight: 400&quot;&gt;Sustainable and self-regulating&lt;/li&gt;&#xa;&lt;li style=&quot;font-weight: 400&quot;&gt;Scales out and logs errors in an easy way&lt;/li&gt;&#xa;&lt;li style=&quot;font-weight: 400&quot;&gt;Guarantees a high level of automation&lt;/li&gt;&#xa;&lt;/ul&gt;" style="text;html=1;strokeColor=none;fillColor=none;align=left;verticalAlign=middle;whiteSpace=wrap;rounded=0;" vertex="1" parent="1">
          <mxGeometry x="-30" y="550" width="460" height="240" as="geometry" />
        </mxCell>
        <mxCell id="hEB2tJItjk9eLHJauMbJ-2" value="Software as Service&lt;br&gt;&lt;br&gt;BACKEND&lt;br&gt;environment: nodejs&lt;br&gt;framework: nestjs&lt;br&gt;architecture: microservices&lt;br&gt;&lt;br&gt;DATABASES&lt;br&gt;mssql&lt;br&gt;redis&lt;br&gt;&lt;br&gt;" style="text;html=1;align=center;verticalAlign=middle;resizable=0;points=[];autosize=1;" vertex="1" parent="1">
          <mxGeometry x="10" y="130" width="160" height="160" as="geometry" />
        </mxCell>
      </root>
    </mxGraphModel>
  </diagram>
</mxfile>
